<?xml version="1.0" standalone="no"?>
<!DOCTYPE svg PUBLIC "-//W3C//DTD SVG 20010904//EN"
 "http://www.w3.org/TR/2001/REC-SVG-20010904/DTD/svg10.dtd">
<svg version="1.0" xmlns="http://www.w3.org/2000/svg"
 width="18.000000pt" height="18.000000pt" viewBox="0 0 18.000000 18.000000"
 preserveAspectRatio="xMidYMid meet">

<g transform="translate(0.000000,18.000000) scale(0.100000,-0.100000)"
fill="#000000" stroke="none">
<path d="M20 160 c-44 -44 -7 -117 53 -107 26 4 38 -1 63 -25 18 -16 34 -26
38 -20 3 5 -8 21 -24 37 -23 22 -27 33 -23 60 10 62 -63 99 -107 55z m82 -26
c16 -34 0 -59 -38 -59 -22 0 -31 6 -39 28 -8 24 -6 31 10 43 29 21 54 17 67
-12z"/>
</g>
</svg>
