<?xml version="1.0" standalone="no"?>
<!DOCTYPE svg PUBLIC "-//W3C//DTD SVG 20010904//EN"
 "http://www.w3.org/TR/2001/REC-SVG-20010904/DTD/svg10.dtd">
<svg version="1.0" xmlns="http://www.w3.org/2000/svg"
 width="16.000000pt" height="21.000000pt" viewBox="0 0 16.000000 21.000000"
 preserveAspectRatio="xMidYMid meet">

<g transform="translate(0.000000,21.000000) scale(0.100000,-0.100000)"
fill="#000000" stroke="none">
<path d="M40 190 c-27 -27 -26 -65 2 -84 32 -22 64 -20 82 6 22 32 20 64 -6
82 -30 21 -54 20 -78 -4z"/>
<path d="M25 55 c-45 -44 -35 -55 55 -55 90 0 100 11 55 55 -32 33 -45 31 -45
-5 0 -16 -4 -30 -10 -30 -5 0 -10 14 -10 30 0 36 -13 38 -45 5z"/>
</g>
</svg>
